<svg width="46" height="46" viewBox="0 0 46 46" fill="none" xmlns="http://www.w3.org/2000/svg">
<circle cx="23" cy="23" r="22.5" fill="#F2F3FB" stroke="#F2F3FB"/>
<path d="M27.6594 15.7803C28.5375 14.9017 29.9625 14.9017 30.8406 15.7803L31.2188 16.1591C32.0969 17.0378 32.0969 18.4625 31.2188 19.3406L25.0562 25.5062C24.7844 25.775 24.45 25.9719 24.0813 26.0781L20.9563 26.9719C20.6938 27.0469 20.4125 26.9719 20.2188 26.7531C20.0281 26.5875 19.9531 26.3062 20.0281 26.0437L20.9219 22.9187C21.0281 22.55 21.225 22.2156 21.4938 21.9437L27.6594 15.7803ZM29.7531 16.8409C29.4875 16.5481 29.0125 16.5481 28.7188 16.8409L27.8094 17.75L29.25 19.1906L30.1594 18.2531C30.4531 17.9875 30.4531 17.5125 30.1594 17.2197L29.7531 16.8409ZM22.3656 23.3312L21.8406 25.1594L23.6687 24.6344C23.7937 24.6 23.9031 24.5344 23.9938 24.4437L28.1906 20.25L26.75 18.8094L22.5563 23.0062C22.4656 23.0969 22.4 23.2062 22.3656 23.3312ZM22.25 17C22.6656 17 23 17.3359 23 17.75C23 18.1656 22.6656 18.5 22.25 18.5H18.75C18.0597 18.5 17.5 19.0594 17.5 19.75V28.25C17.5 28.9406 18.0597 29.5 18.75 29.5H27.25C27.9406 29.5 28.5 28.9406 28.5 28.25V24.75C28.5 24.3344 28.8344 24 29.25 24C29.6656 24 30 24.3344 30 24.75V28.25C30 29.7687 28.7688 31 27.25 31H18.75C17.2313 31 16 29.7687 16 28.25V19.75C16 18.2313 17.2313 17 18.75 17H22.25Z" fill="#495584"/>
</svg>
