<?xml version="1.0" encoding="utf-8"?>
<!-- Generator: Adobe Illustrator 22.0.0, SVG Export Plug-In . SVG Version: 6.00 Build 0)  -->
<svg version="1.1"
	 id="svg8" xmlns:cc="http://creativecommons.org/ns#" xmlns:dc="http://purl.org/dc/elements/1.1/" xmlns:inkscape="http://www.inkscape.org/namespaces/inkscape" xmlns:rdf="http://www.w3.org/1999/02/22-rdf-syntax-ns#" xmlns:sodipodi="http://sodipodi.sourceforge.net/DTD/sodipodi-0.dtd" xmlns:svg="http://www.w3.org/2000/svg"
	 xmlns="http://www.w3.org/2000/svg" xmlns:xlink="http://www.w3.org/1999/xlink" x="0px" y="0px" viewBox="0 0 8.5 8.5"
	 style="enable-background:new 0 0 8.5 8.5;" xml:space="preserve">
<style type="text/css">
	.st0{fill:#F7F7F7;}
	.st1{fill:#E2E2E2;}
</style>
<rect x="0" y="0" class="st0" width="8.5" height="8.5"/>
<g id="layer1" transform="translate(0,-288.53332)">
	<path id="path935" class="st1" d="M2.9,293.8c-1.3,0.5-2.3,1.8-2.3,3.3c0,0.1,0.1,0.2,0.2,0.2c0,0,0,0,0,0h6.7
		c0.1,0,0.2-0.1,0.2-0.2c0-1.5-0.9-2.8-2.3-3.3c-0.4,0.3-0.8,0.5-1.3,0.5C3.7,294.3,3.3,294.1,2.9,293.8z"/>
	<path id="path940" class="st1" d="M4.2,290.2c-1.1,0-1.9,0.9-1.9,1.9c0,1.1,0.9,1.9,1.9,1.9s1.9-0.9,1.9-1.9
		C6.1,291,5.3,290.2,4.2,290.2z"/>
</g>
</svg>
